<svg xmlns="http://www.w3.org/2000/svg" xmlns:xlink="http://www.w3.org/1999/xlink" viewBox="0 0 321 288">
  <defs>
    <style>
      .cls-1 {
        clip-path: url(#clip-custom_1);
      }

      .cls-2 {
        fill: #2d3673;
      }

      .cls-3 {
        fill: none;
        stroke: #313030;
      }

      .cls-4 {
        fill: #f8cd56;
      }

      .cls-5 {
        fill: #3b2626;
      }

      .cls-6 {
        fill: #fff;
      }

      .cls-7 {
        fill: #4d3f3f;
        font-size: 48px;
        font-family: MyanmarText, Myanmar Text;
      }
    </style>
    <clipPath id="clip-custom_1">
      <rect width="321" height="288"/>
    </clipPath>
  </defs>
  <g id="custom_1" data-name="custom – 1" class="cls-1">
    <path id="Path_8" data-name="Path 8" class="cls-2" d="M0,10.64Z" transform="translate(226.052 61.249)"/>
    <g id="Group_1" data-name="Group 1" transform="translate(-90 -137.5)">
      <ellipse id="Ellipse_2" data-name="Ellipse 2" class="cls-3" cx="102.259" cy="102.767" rx="102.259" ry="102.767" transform="translate(147.5 147.5)"/>
      <ellipse id="Ellipse_1" data-name="Ellipse 1" class="cls-4" cx="98.759" cy="98.767" rx="98.759" ry="98.767" transform="translate(151 151)"/>
      <path id="Path_2" data-name="Path 2" class="cls-5" d="M61.683,1.194c15.3,3.668,0,16.96,0,16.96S.015,14.811.015,10.571c0-2.353-.141-6.581.458-7.091C.472,3.481,46.38-2.474,61.683,1.194Z" transform="translate(186.065 209.87) rotate(-21)"/>
      <path id="Path_1" data-name="Path 1" class="cls-5" d="M178.577,148.223c25.54,67.141,14.873,90.782,10.61,98.926a19.29,19.29,0,0,1-10.61,8.31c-10.694,3.1-27.059,1.815-34.39-4.541-11.261-9.763-3.123-26.508-1.317-28.835,4.4-5.676,13.965,5,6.979-8.275s-10.339-9.361-10.339-9.361-21.835,16.475-10.262,43.61c10.253,24.042,63.087,30.706,72.973,2.861.439-1.235,3.49-8.554,4.541-22.477a160.258,160.258,0,0,0,0-21.358c-1.881-23.213-11.433-40.012-12.491-53.573s32.838-39.445,38.025-16.3c2.812,12.545,3.462,15.11,3.684,16.052.12.514.33.217.33.217l8.879-5.257s-1.872-43.09-27.013-33.114S178.577,148.223,178.577,148.223Z" transform="translate(64.136 58.39)"/>
      <path id="Path_4" data-name="Path 4" class="cls-6" d="M123.513,188.468c.036.053-1.064-3.24-1.064-3.24l-1.028-2.706s2.433-1.1,2.437-1.088,4.482-2.357,7.262-3.542,4.011-1.035,4.011-1.035c-3.464,1.789-6.524,3.164-7.762,4.03-.953.666-2.8,1.725-3.358,2.618C122.661,185.673,123.968,188.61,123.513,188.468Z" transform="translate(67.643 31.16)"/>
      <path id="Path_6" data-name="Path 6" class="cls-6" d="M314.133,102.378s7.676-4.257,13.936-1.146,7.28,9.915,7.28,9.915-.733-4.68-6.993-7.79S314.133,102.378,314.133,102.378Z" transform="translate(-33.647 74.128)"/>
      <path id="Path_7" data-name="Path 7" class="cls-6" d="M143.161,294.015s4.111-7.551,7.6-6.89,6.35,9.535,6.35,9.535-3.949-6.779-7.436-7.441S143.161,294.015,143.161,294.015Z" transform="translate(54.541 -21.586)"/>
      <text id="WEB_DESIGN" data-name="WEB DESIGN" class="cls-7" transform="translate(113 404)"><tspan x="0" y="0">WEB DESIGN</tspan></text>
    </g>
  </g>
</svg>
