<svg xmlns="http://www.w3.org/2000/svg" xmlns:xlink="http://www.w3.org/1999/xlink" viewBox="0 0 211 222">
  <defs>
    <style>
      .cls-1 {
        clip-path: url(#clip-custom_1);
      }

      .cls-2 {
        fill: #e4b176;
      }

      .cls-3 {
        fill: #f2c78a;
      }

      .cls-4 {
        fill: #814d38;
      }

      .cls-5, .cls-6 {
        fill: #8b583f;
      }

      .cls-6 {
        opacity: 0.26;
      }

      .cls-7 {
        fill: #84513d;
      }

      .cls-10, .cls-8 {
        fill: none;
      }

      .cls-8 {
        stroke: #814d38;
      }

      .cls-9 {
        fill: #75372a;
      }

      .cls-11 {
        fill: #c2744e;
      }

      .cls-12 {
        fill: #81552e;
      }

      .cls-13 {
        fill: #181717;
      }

      .cls-14 {
        fill: #591e0c;
      }

      .cls-15 {
        fill: #a14c2d;
      }

      .cls-16 {
        fill: #d49760;
      }

      .cls-17 {
        fill: #f6be8d;
      }

      .cls-18 {
        fill: #b35030;
      }

      .cls-19 {
        fill: #bf683d;
      }

      .cls-20 {
        fill: #c78c5a;
      }

      .cls-21 {
        fill: #c67d54;
      }

      .cls-22 {
        fill: #a9603f;
      }

      .cls-23 {
        fill: #ddab76;
      }

      .cls-24 {
        fill: #cc905e;
      }

      .cls-25 {
        fill: #e1ad74;
      }

      .cls-26 {
        fill: #ccbda7;
      }

      .cls-27 {
        fill: #f8e9c9;
      }
    </style>
    <clipPath id="clip-custom_1">
      <rect width="211" height="222"/>
    </clipPath>
  </defs>
  <g id="custom_1" data-name="custom – 1" class="cls-1">
    <path id="Path_16" data-name="Path 16" class="cls-2" d="M297.156,164.4s2.878,17.046,1.593,27.74,1.792,16.608,1.842,17.2-3.435,11.982-3.435,11.982l-2.005,15.783s-1.285,15.539-1.542,17.076-2.313,8.065.643,6.913,11.466-7.2,11.851-7.792,2.8-13.3,3.827-15.31,3.6-14.771,3.6-14.771l-1.028-5.554V205.851l-3.213-2.127-3.855-.591,1.021-6.953,2.834-6.636,2.056-7.976a42.18,42.18,0,0,0-3.341-7.09c-2.024-3.309-2.043-3.626-4.755-6.145A23.392,23.392,0,0,0,297.156,164.4Z" transform="translate(-178 -117)"/>
    <path id="Path_15" data-name="Path 15" class="cls-3" d="M215.762,216.4c-.622-1.146-.073-6.433,0-7.579s-.4-6.73-.4-6.73l2.888-21.742,6.035-13.061,5.431-2.979,21.726,5.729,11.466-4.583,6.035,4.583,16.7-5.729h11.466a169.861,169.861,0,0,1,2.18,24.427c0,11.629,4.871,14.87,4.218,23.234s-1.447,6.453-3.308,7.847-5.655-5.136-11.539-6.243-8.65-2.31-15.087-1.6a20.933,20.933,0,0,0-10.662,4.429s-1.056.058-3.42,2.9-2.112,0-3.621,2.979.553,6.7-2.414,8.936-5.934,2.979-9.455,0-1.308-7.905-4.627-11.915-3.37-2.692-8.65-4.125-8.732-1.909-12.472-1.6,0,12.926,0,12.926" transform="translate(-178 -119.636)"/>
    <path id="Path_59" data-name="Path 59" class="cls-4" d="M311.722,249.935h-.94v8a9.546,9.546,0,0,0,0,2.2h1.412l-.472-1.8s.08-2.9.864-3.294a2.607,2.607,0,0,0,1.333-1.726c0-.392-.549-2.588-.549-2.588v-.784l-1.961-.392" transform="translate(-178 -117)"/>
    <path id="Path_63" data-name="Path 63" class="cls-3" d="M286.245,292l-24.37,9.974h-10.5v4.181l-3.569,9.177,2.345,9.891,9.075,4.079,5.71-5.914s5-8.871,5.506-8.871,5.914-12.542,5.914-12.542Z" transform="translate(-178 -117)"/>
    <path id="Path_1" data-name="Path 1" class="cls-4" d="M326.654,212.817c2.03-3.309,1.18-11.547,1.18-11.547l3.894-11.164V172.712l-3.894-10.385-12.2-8.567-22.846,8.567,11.683,7.789s5.971,10.644,5.192,13.76-7.789,18.433-5.192,19.212,5.712,1.083,5.192,6.275.519,13.456,1.817,13.975a30.911,30.911,0,0,1,4.154,2.6l4.084-11.427S324.625,216.126,326.654,212.817Z" transform="translate(-178 -117)"/>
    <path id="Path_2" data-name="Path 2" class="cls-5" d="M315.632,153.759l-23.366,9.476H281.1s-5.712,4.154-10.385,5.192-7.01-3.375-7.01-3.375-8.567,2.077-11.164,3.375-20.77-4.673-23.366-3.375-5.971,3.375-5.971,3.375a26.527,26.527,0,0,0-4.414,7.529,50.226,50.226,0,0,0-1.817,9.087l-1.558,15.577s.267,2.781.267,5.052a29.9,29.9,0,0,1-.267,4.034l-3.115-9.087v-20.51l-2.077-5.971-2.337-5.712,4.414-7.269,10.9-5.192s-1.817-4.154-4.414-4.673-8.567,0-8.567,0V146.1l11.164-4.933,5.712-5.192,7.789-2.077L239.564,130h2.077l-9.087-3.115,13.5-1.558,10.9-2.337V119.1h3.375v1.817h7.789s17.395,6.49,22.587,12.981,5.452-7.01,5.452-7.01v-5.971L303.69,130v7.789L306.545,130v13.5Z" transform="translate(-178 -117)"/>
    <path id="Path_3" data-name="Path 3" class="cls-6" d="M220.871,155.966H210.486L200.1,161.159l10.385-3.115h10.385Z" transform="translate(-178 -117)"/>
    <path id="Path_4" data-name="Path 4" class="cls-5" d="M224.246,153.759l-5.971,2.207-10.385,6.49-2.6,4.414v2.077s.779-2.077,5.192-6.49S224.246,153.759,224.246,153.759Z" transform="translate(-178 -117)"/>
    <path id="Path_58" data-name="Path 58" class="cls-3" d="M308.886,248.4h2.836l-1.026,9.292s.724,7.9-1.81,12.873-8.326,7.038-8.326,7.038l-3.439,3.5,7.844-18.523Z" transform="translate(-178 -117)"/>
    <path id="Path_5" data-name="Path 5" class="cls-5" d="M287.853,130.783c1.817-11.164-1.817-15.837,0-13.241s6.231,20.25,6.231,20.25Z" transform="translate(-178 -117)"/>
    <path id="Path_6" data-name="Path 6" class="cls-4" d="M277.208,153.889s-11.683-10.9-28.558-14.019-31.674,8.308-31.674,8.308,19.471-4.673,28.558-3.894S277.208,153.889,277.208,153.889Z" transform="translate(-178 -117)"/>
    <path id="Path_7" data-name="Path 7" class="cls-4" d="M216.977,148.178s14.8-11.423,31.674-8.308,28.955,13.171,28.558,14.019-15.086-9.2-30.144-10.625S216.977,148.178,216.977,148.178Z" transform="matrix(0.995, 0.105, -0.105, 0.995, -142.321, -149.025)"/>
    <path id="Path_8" data-name="Path 8" class="cls-4" d="M314.078,153.889l-7.681,1.575-7.988,3.841s-9.217,2.612-9.985,2.612-8.91,2.765-8.91,2.765l13.826-1.843Z" transform="translate(-178 -117)"/>
    <path id="Path_9" data-name="Path 9" class="cls-5" d="M313.31,155.966c-14.287,6.718-14.594,5.643-14.594,5.643l13.519-6.913Z" transform="translate(-178 -117)"/>
    <path id="Path_10" data-name="Path 10" class="cls-4" d="M200.1,161.159l10.739-4.489a58.085,58.085,0,0,1,9.985-3c5.192-1,17.674-3.519,30.955-2a46.082,46.082,0,0,1,22.567,9.481s-23.166-6.885-33.551-6.486S200.1,161.159,200.1,161.159Z" transform="translate(-178 -117)"/>
    <path id="Path_11" data-name="Path 11" class="cls-4" d="M230.283,164.4s9.04-3.863,17.371-3.693S230.283,164.4,230.283,164.4Z" transform="translate(-178 -117)"/>
    <path id="Path_12" data-name="Path 12" class="cls-4" d="M228.511,164.4s-2.924-1.473-5.838,1.43-5.817,10.18-5.817,10.18-.054-3.795-.327.573c-.19,3.031-.486,9.994-.663,14.284-.059,1.441-.106,2.614-.106,2.614s.341-.007.774-2.173.959-6.491.959-6.491,1.136-7.433,2.519-10.589C223.2,166.962,228.511,164.4,228.511,164.4Z" transform="translate(-178 -117)"/>
    <path id="Path_37" data-name="Path 37" class="cls-3" d="M217.381,256.925v-3.1s-1.324-4.758-1.324-4.965-.827-6.206-.827-6.206l-.248-4.117.248-8.171.827-7.489-.331-10.2s13.943.29,14.15.29,13.364,2.069,13.364,2.069S280.78,208,281.548,208s16.437,4.963,16.437,4.963l1.525,13.353s.192,4.281,0,6.79c-.96,12.547-5.156,30.406-5.156,30.406l-6.661,6.551-12.6,6.913,1.935-10.134v-1.949l-10.3-4.223-13.139-.9-7.374,3.38-6.452-3.38-9.724-.61-4.563,2.146-1.536,6.913-3.072-1.229Z" transform="translate(-178 -117)"/>
    <path id="Path_42" data-name="Path 42" class="cls-3" d="M229.575,264.082l42.6,2.455,2.916,10.472-17.232,14.581L244.334,294.9l-11.267-6.5-7.953-12.593V263.224Z" transform="translate(-178 -117)"/>
    <path id="Path_13" data-name="Path 13" class="cls-5" d="M318.931,166.9l3.994,16.975-2.2,11.583v-9.985A93.7,93.7,0,0,0,318.931,166.9Z" transform="translate(-178 -117)"/>
    <path id="Path_14" data-name="Path 14" class="cls-5" d="M312.257,176.491s1.327,2.047,0,7.988-5.308,15.777-5.308,15.777,6.062-11.833,7.389-17.774S312.257,176.491,312.257,176.491Z" transform="translate(-178 -117)"/>
    <path id="Path_18" data-name="Path 18" class="cls-5" d="M296.045,263.548l-1.182,6.5.591,3.781,1.536-8.508Z" transform="translate(-178 -117)"/>
    <path id="Path_17" data-name="Path 17" class="cls-7" d="M310.8,228.451,306.178,247l-4.609,8.272-6.5,5.318-2.525,4.544-6.692,5.5-10.044,5.908s-5.22,1.635-8.336,4.231-12.2,7.789-12.2,7.789l-2.077,3.375-12.2-1.3-7.269-7.789-7.01-6.308s-5.82-14.312-8.416-18.3-.727,1.454-.727,1.454-.908,2.4-.636,3.091c.961,2.455,5.053,12.1,7.272,15.271,2.545,3.636,2.045,4.745,3.863,7.833s1.871,2.464,2.955,4.748a23.135,23.135,0,0,0,2.7,4.236l3.07,5.5a103.185,103.185,0,0,0,11.046,1.32c6.2.409,7.678,1.786,14.109.536s9.979-3.991,11.8-4.445a26.408,26.408,0,0,0,12.108-5.557c2.942-2.288,3.9-3.985,5.617-5.351,1.258-.989,3.4-1.314,6.307-6.809,5.768-10.9,7.973-18.989,11.146-31.733S310.8,228.451,310.8,228.451Z" transform="translate(-178 -117)"/>
    <line id="Line_1" data-name="Line 1" class="cls-8" y2="1" transform="translate(99.5 167.5)"/>
    <line id="Line_2" data-name="Line 2" class="cls-8" y2="1" transform="translate(101.5 171.5)"/>
    <line id="Line_3" data-name="Line 3" class="cls-8" y2="1" transform="translate(98.5 171.5)"/>
    <line id="Line_4" data-name="Line 4" class="cls-8" y2="1" transform="translate(93.5 169.5)"/>
    <line id="Line_5" data-name="Line 5" class="cls-8" y2="1" transform="translate(95.5 170.5)"/>
    <line id="Line_6" data-name="Line 6" class="cls-8" y2="1" transform="translate(96.5 166.5)"/>
    <line id="Line_7" data-name="Line 7" class="cls-8" y2="1" transform="translate(99.5 167.5)"/>
    <line id="Line_8" data-name="Line 8" class="cls-8" y2="1" transform="translate(101.5 171.5)"/>
    <line id="Line_9" data-name="Line 9" class="cls-8" y2="1" transform="translate(98.5 171.5)"/>
    <line id="Line_10" data-name="Line 10" class="cls-8" y2="1" transform="translate(93.5 169.5)"/>
    <line id="Line_11" data-name="Line 11" class="cls-8" y2="1" transform="translate(95.5 170.5)"/>
    <line id="Line_12" data-name="Line 12" class="cls-8" y2="1" transform="translate(96.5 166.5)"/>
    <line id="Line_13" data-name="Line 13" class="cls-8" y2="1" transform="translate(75.5 182.5)"/>
    <line id="Line_14" data-name="Line 14" class="cls-8" y2="1" transform="translate(116.5 154.5)"/>
    <line id="Line_15" data-name="Line 15" class="cls-8" y2="1" transform="translate(89.5 173.5)"/>
    <line id="Line_16" data-name="Line 16" class="cls-8" y2="1" transform="translate(81.5 179.5)"/>
    <line id="Line_17" data-name="Line 17" class="cls-8" y2="1" transform="translate(84.5 173.5)"/>
    <line id="Line_18" data-name="Line 18" class="cls-8" y2="1" transform="translate(80.5 173.5)"/>
    <line id="Line_19" data-name="Line 19" class="cls-8" y2="1" transform="translate(115.5 162.5)"/>
    <line id="Line_20" data-name="Line 20" class="cls-8" y2="1" transform="translate(96.5 176.5)"/>
    <line id="Line_21" data-name="Line 21" class="cls-8" y2="1" transform="translate(93.5 176.5)"/>
    <line id="Line_22" data-name="Line 22" class="cls-8" y2="1" transform="translate(85.5 176.5)"/>
    <line id="Line_23" data-name="Line 23" class="cls-8" y2="1" transform="translate(91.5 178.5)"/>
    <line id="Line_24" data-name="Line 24" class="cls-8" y2="1" transform="translate(86.5 170.5)"/>
    <line id="Line_25" data-name="Line 25" class="cls-8" y2="1" transform="translate(111.5 159.5)"/>
    <line id="Line_26" data-name="Line 26" class="cls-8" y2="1" transform="translate(104.5 169.5)"/>
    <line id="Line_27" data-name="Line 27" class="cls-8" y2="1" transform="translate(85.5 181.5)"/>
    <line id="Line_28" data-name="Line 28" class="cls-8" y2="1" transform="translate(70.5 181.5)"/>
    <line id="Line_29" data-name="Line 29" class="cls-8" y2="1" transform="translate(88.5 178.5)"/>
    <line id="Line_30" data-name="Line 30" class="cls-8" y2="1" transform="translate(93.5 163.5)"/>
    <line id="Line_31" data-name="Line 31" class="cls-8" y2="1" transform="translate(99.5 167.5)"/>
    <line id="Line_32" data-name="Line 32" class="cls-8" y2="1" transform="translate(101.5 171.5)"/>
    <line id="Line_33" data-name="Line 33" class="cls-8" y2="1" transform="translate(126.5 136.5)"/>
    <line id="Line_34" data-name="Line 34" class="cls-8" y2="1" transform="translate(93.5 169.5)"/>
    <line id="Line_35" data-name="Line 35" class="cls-8" y2="1" transform="translate(109.5 165.5)"/>
    <line id="Line_36" data-name="Line 36" class="cls-8" y2="1" transform="translate(96.5 166.5)"/>
    <line id="Line_37" data-name="Line 37" class="cls-8" y2="1" transform="translate(99.5 167.5)"/>
    <line id="Line_38" data-name="Line 38" class="cls-8" y2="1" transform="translate(102.5 174.5)"/>
    <line id="Line_39" data-name="Line 39" class="cls-8" y2="1" transform="translate(98.5 174.5)"/>
    <line id="Line_40" data-name="Line 40" class="cls-8" y2="1" transform="translate(93.5 169.5)"/>
    <line id="Line_41" data-name="Line 41" class="cls-8" y2="1" transform="translate(91.5 167.5)"/>
    <line id="Line_42" data-name="Line 42" class="cls-8" y2="1" transform="translate(102.5 163.5)"/>
    <line id="Line_43" data-name="Line 43" class="cls-8" y2="1" transform="translate(118.5 158.5)"/>
    <line id="Line_44" data-name="Line 44" class="cls-8" y2="1" transform="translate(107.5 161.5)"/>
    <line id="Line_45" data-name="Line 45" class="cls-8" y2="1" transform="translate(106.5 158.5)"/>
    <line id="Line_46" data-name="Line 46" class="cls-8" y2="1" transform="translate(112.5 154.5)"/>
    <line id="Line_47" data-name="Line 47" class="cls-8" y2="1" transform="translate(121.5 151.5)"/>
    <line id="Line_48" data-name="Line 48" class="cls-8" y2="1" transform="translate(102.5 159.5)"/>
    <line id="Line_49" data-name="Line 49" class="cls-8" y2="1" transform="translate(111.5 167.5)"/>
    <line id="Line_50" data-name="Line 50" class="cls-8" y2="1" transform="translate(106.5 171.5)"/>
    <line id="Line_51" data-name="Line 51" class="cls-8" y2="1" transform="translate(106.5 168.5)"/>
    <line id="Line_52" data-name="Line 52" class="cls-8" y2="1" transform="translate(76.5 178.5)"/>
    <line id="Line_53" data-name="Line 53" class="cls-8" y2="1" transform="translate(123.5 144.5)"/>
    <line id="Line_54" data-name="Line 54" class="cls-8" y2="1" transform="translate(123.5 148.5)"/>
    <line id="Line_55" data-name="Line 55" class="cls-8" y2="1" transform="translate(99.5 167.5)"/>
    <line id="Line_56" data-name="Line 56" class="cls-8" y2="1" transform="translate(101.5 171.5)"/>
    <line id="Line_57" data-name="Line 57" class="cls-8" y2="1" transform="translate(95.5 170.5)"/>
    <line id="Line_58" data-name="Line 58" class="cls-8" y2="1" transform="translate(81.5 183.5)"/>
    <line id="Line_59" data-name="Line 59" class="cls-8" y2="1" transform="translate(70.5 178.5)"/>
    <line id="Line_60" data-name="Line 60" class="cls-8" y2="1" transform="translate(88.5 181.5)"/>
    <line id="Line_61" data-name="Line 61" class="cls-8" y2="1" transform="translate(97.5 170.5)"/>
    <line id="Line_62" data-name="Line 62" class="cls-8" y2="1" transform="translate(118.5 146.5)"/>
    <line id="Line_63" data-name="Line 63" class="cls-8" y2="1" transform="translate(99.5 177.5)"/>
    <line id="Line_64" data-name="Line 64" class="cls-8" y2="1" transform="translate(91.5 172.5)"/>
    <line id="Line_65" data-name="Line 65" class="cls-8" y2="1" transform="translate(93.5 173.5)"/>
    <line id="Line_66" data-name="Line 66" class="cls-8" y2="1" transform="translate(90.5 169.5)"/>
    <line id="Line_67" data-name="Line 67" class="cls-8" y2="1" transform="translate(63.5 175.5)"/>
    <line id="Line_68" data-name="Line 68" class="cls-8" y2="1" transform="translate(65.5 179.5)"/>
    <line id="Line_69" data-name="Line 69" class="cls-8" y2="1" transform="translate(62.5 179.5)"/>
    <line id="Line_70" data-name="Line 70" class="cls-8" y2="1" transform="translate(57.5 177.5)"/>
    <line id="Line_71" data-name="Line 71" class="cls-8" y2="1" transform="translate(59.5 178.5)"/>
    <line id="Line_72" data-name="Line 72" class="cls-8" y2="1" transform="translate(60.5 174.5)"/>
    <line id="Line_73" data-name="Line 73" class="cls-8" y2="1" transform="translate(56.5 168.5)"/>
    <line id="Line_74" data-name="Line 74" class="cls-8" y2="1" transform="translate(58.5 172.5)"/>
    <line id="Line_75" data-name="Line 75" class="cls-8" y2="1" transform="translate(55.5 172.5)"/>
    <line id="Line_76" data-name="Line 76" class="cls-8" y2="1" transform="translate(51.5 165.5)"/>
    <line id="Line_77" data-name="Line 77" class="cls-8" y2="1" transform="translate(53.5 170.5)"/>
    <line id="Line_78" data-name="Line 78" class="cls-8" y2="1" transform="translate(53.5 167.5)"/>
    <line id="Line_79" data-name="Line 79" class="cls-8" y2="1" transform="translate(46.5 157.5)"/>
    <line id="Line_80" data-name="Line 80" class="cls-8" y2="1" transform="translate(50.5 163.5)"/>
    <line id="Line_81" data-name="Line 81" class="cls-8" y2="1" transform="translate(47.5 159.5)"/>
    <line id="Line_82" data-name="Line 82" class="cls-8" y2="1" transform="translate(41.5 145.5)"/>
    <line id="Line_83" data-name="Line 83" class="cls-8" y2="1" transform="translate(49.5 161.5)"/>
    <line id="Line_84" data-name="Line 84" class="cls-8" y2="1" transform="translate(45.5 154.5)"/>
    <line id="Line_85" data-name="Line 85" class="cls-8" y2="1" transform="translate(72.5 176.5)"/>
    <line id="Line_86" data-name="Line 86" class="cls-8" y2="1" transform="translate(74.5 180.5)"/>
    <line id="Line_87" data-name="Line 87" class="cls-8" y2="1" transform="translate(71.5 180.5)"/>
    <line id="Line_88" data-name="Line 88" class="cls-8" y2="1" transform="translate(66.5 181.5)"/>
    <line id="Line_89" data-name="Line 89" class="cls-8" y2="1" transform="translate(67.5 177.5)"/>
    <line id="Line_90" data-name="Line 90" class="cls-8" y2="1" transform="translate(42.5 149.5)"/>
    <path id="Path_19" data-name="Path 19" class="cls-4" d="M275.512,277.948c-.2-1.039,1.2-6.74,2.082-8.956.161-.4.354.32.354.32a5.519,5.519,0,0,0-.354-4.09c-1.091-1.863-5.1-3.454-5.555-3.454s-6.862-3.068-11.862-2.727-9.772.273-10.408.727-4.545,2-4.545,2l-5.754-2.727a46.679,46.679,0,0,0-7.681-.636c-2.841.159-4.018.678-4.472.951s-2.5,1.322-2.5,1.322l-1.006,1.636s-.767,1.792-.585,1.973c0,0,.493-.779.585.477a26.735,26.735,0,0,1-.585,4.548l4.09,8.635-.677-7.3s-.125-2.127-.125-3.056c0-3.415-.357-2.739.8-3.307s6.54.477,6.54.477l9.095,1.094,3.181-.636s1.242.182,7.378.636,13.02.521,13.02.521l5.509,2.933s.273,4.727.454,5.181.382,2.233.655,3.454,1.469-.569,1.469-.569Z" transform="translate(-178 -117)"/>
    <path id="Path_20" data-name="Path 20" class="cls-9" d="M266.048,215.941s-4.35,1.663-5.044.4.781-5.069.781-5.069l5.958-2.964,9.132-.877a31.223,31.223,0,0,1,6.015-1.1c2.084,0,6.452,3.658,6.452,3.658l3.209,1.283,4.373,3.072v2a5.872,5.872,0,0,1-2.811,0c-2.147-.307-.257.572-3.459-.772s-1.712-.538-5.031-1.614c-.677-.219-6.288-1.916-6.288-1.916s-2.27.382-4.538.84a13.836,13.836,0,0,0-4.757,1.464C267.61,215.415,266.048,215.941,266.048,215.941Z" transform="translate(-178 -117)"/>
    <path id="Path_21" data-name="Path 21" class="cls-9" d="M236.568,216.7l-3.728-5s-9.272-3.363-10.181-3.363a57.464,57.464,0,0,0-5.727,1.273l-1.818,2.091v1.363h1.091l4.066-.5,5.3.5,7.272,3.636,2.454.909Z" transform="translate(-178 -117)"/>
    <path id="Path_22" data-name="Path 22" class="cls-9" d="M238.018,216.551l-1.451-3.409-2.52-1.488h-1.817s.422.838,1.331,2.327a21.432,21.432,0,0,1,1.626,3.632Z" transform="translate(-178 -117)"/>
    <path id="Path_23" data-name="Path 23" class="cls-10" d="M215.469,212.978s.036,12.663,0,13.013-.876,6.852-.876,7.342V244.52L217.53,256.9l6.013,12.1,2.028-9.23,7.2-1.608,9.44,1.608,3.286,1.888v-2.937l-5.524-2.307-5.1-1.888-2.1-1.4-1.049-3.5s2.657-4.335,3.147-4.545,5.314-4.405,5.1-4.755.839-6.992.839-6.992L243.4,228.3l-2.587-8.74-3.5-5.244.909,2.587-3.007.7-10.488-4.622Z" transform="translate(-178 -117)"/>
    <path id="Path_24" data-name="Path 24" class="cls-11" d="M241.18,221.884s-4.034-3.227-4.3-3.335-6.992-1.883-6.992-1.883l-7.53,1.076-2.8,2.958-.323,1.452,4.034-2.8,5-1.183,6.831,1.452s3.389,2.367,3.658,2.528A10.375,10.375,0,0,0,241.18,221.884Z" transform="translate(-178 -117)"/>
    <path id="Path_27" data-name="Path 27" class="cls-12" d="M228.453,221.274a12.644,12.644,0,0,0-.612,1.714c.049.122.612,1.591.612,1.591l1.518,1.4a26.742,26.742,0,0,1,3.134,0,18.927,18.927,0,0,0,2.815-.71l.661-2.032-.343-1.224-2.889-1.1-3.379-.612Z" transform="translate(-178 -117)"/>
    <path id="Path_28" data-name="Path 28" class="cls-13" d="M230.943,221.162a3.071,3.071,0,0,0-.4,1.57,1.353,1.353,0,0,0,1.758,1.614,2.886,2.886,0,0,0,1.418-.278,1.541,1.541,0,0,0,.567-1.03v-.974s.248-.167-.284-.5a4.462,4.462,0,0,0-1.843-.835C231.4,220.628,231.347,220.661,230.943,221.162Z" transform="translate(-178 -117)"/>
    <path id="Path_32" data-name="Path 32" class="cls-12" d="M274.219,221.545s.331-.528-.248-.265-1.91.686-1.91.686l-.8,2.353a5.575,5.575,0,0,0,1.609,3.012c1.2.847,1.948.487,3.281.487a3.205,3.205,0,0,0,2.049-.487,3.856,3.856,0,0,0,1.345-.968l.7-1.614a2.2,2.2,0,0,0-.377-1.721,6.723,6.723,0,0,0-2.044-1.482l-3.313-.265" transform="translate(-178 -117)"/>
    <path id="Path_33" data-name="Path 33" class="cls-13" d="M230.971,221.189a3.21,3.21,0,0,0-.425,1.658,2.113,2.113,0,0,0,.425,1.411,2.163,2.163,0,0,0,1.456.294,3.121,3.121,0,0,0,1.516-.294,1.62,1.62,0,0,0,.606-1.087v-1.029s.265-.176-.3-.529a4.8,4.8,0,0,0-1.971-.882C231.456,220.625,231.4,220.66,230.971,221.189Z" transform="translate(-135 -116)"/>
    <path id="Path_25" data-name="Path 25" class="cls-10" d="M219.665,222.189l4.034-2.833s3.389-.914,3.765-.914h5.755l5.648,3.747v.771l-.645.807-4.679-3.335s-4.572-.914-4.841-.807-3.819.7-4.2.807-4.142,2.528-4.142,2.528Z" transform="translate(-178 -117)"/>
    <path id="Path_26" data-name="Path 26" class="cls-14" d="M221.182,223.526h0l4.137-3.4c.318-.073,5.9-.245,6.561-.2a31.267,31.267,0,0,1,4.407,1.028,21.533,21.533,0,0,1,2.252,2.154c.245.171.318,1.4.318,1.4a18.04,18.04,0,0,0-2.236-1.99,13.217,13.217,0,0,0-2.61-1.437s-3.817-.245-4.551-.122-3.238.433-4.021.678a42.3,42.3,0,0,0-4.454,2.872l-.539-.857" transform="translate(-178 -117)"/>
    <path id="Path_29" data-name="Path 29" class="cls-15" d="M257.951,223.681s13-5.636,13.635-5.636,8.726,1.545,9.363,1.545,7.181,4.09,7.181,4.09-.182,1.363-.636,1.363-6.545-3.909-6.545-3.909l-9.363-1.545-12,4.09Z" transform="translate(-178 -117)"/>
    <path id="Path_30" data-name="Path 30" class="cls-14" d="M263.971,225.578s5.767-3.024,5.926-3.087l2.631-1.184,1.093-.408a15.4,15.4,0,0,1,3.437.318c1.018.318,3.946,1.559,4.838,1.973a26.45,26.45,0,0,1,3.342,2.546c.318.255,0,1.209,0,1.209l-3.978-3.342-4.519-1.91-3.119-.223-3.724,1.719-5.633,2.8Z" transform="translate(-178 -117)"/>
    <path id="Path_31" data-name="Path 31" class="cls-16" d="M257.951,228.451s2.732,2.186,5.095,3.959a26.458,26.458,0,0,0,7.09,3.9,23.061,23.061,0,0,0,6.854.827,51.778,51.778,0,0,0,5.318-.827l3.545-.827,1.773-2.363-3.545-3.072s-3.545,1.418-4.727,1.773-10.281.591-10.281.591l-8.863-3.959Z" transform="translate(-178 -117)"/>
    <path id="Path_34" data-name="Path 34" class="cls-16" d="M253.036,228.873s-2.2,1.217-2.2,1.944-2,8.454-2,8.454l-.909,2.454a4.178,4.178,0,0,0-1.182,1.636c-.3.909,0,1.438,1.182,2.393s2.091.66,3.545,1.425a12.208,12.208,0,0,0,2.886,1.057L257.6,247.2l.05-.016s2.25.273,3.159,1.636.477,3.818.477,3.818l-2.256,1.454h-2.471l-6.817,1.545a8.363,8.363,0,0,0-2.628.258A3.393,3.393,0,0,0,245.873,257a9.863,9.863,0,0,0,1.246.723c-.2-.011.168-.465,1.719-.723,0,0-.372.017-.276,0,1.948-.324,5.911-1.636,6.366-1.363a5.377,5.377,0,0,0,2.727,0c1.091-.182,3.366-.569,3.366-.569a34.7,34.7,0,0,0,2.772-2.689,4.639,4.639,0,0,0,.407-3.31c-.273-1.363-1.029-1.505-1.938-1.869s-3.7-1.107-3.7-1.107l-2-.727s-1.636-1.545-1.636-2a15.471,15.471,0,0,0,0-2.909c-.182-.727.182-1.909,0-3a13.456,13.456,0,0,1,0-2.727v-3.909s-.273-.882-.568-1.613S253.036,228.873,253.036,228.873Z" transform="translate(-178 -117)"/>
    <path id="Path_35" data-name="Path 35" class="cls-16" d="M237.475,253.628c.979.14,6.783,3.986,6.783,3.986l1.4,1.608,1.189-.839v-2.447l1.748-1.958a19.032,19.032,0,0,1-5.384.7A24.021,24.021,0,0,1,237.475,253.628Z" transform="translate(-178 -117)"/>
    <path id="Path_36" data-name="Path 36" class="cls-16" d="M238.867,242.475l-3.42,4.2-1.888.979,4.685-2.377Z" transform="translate(-178 -117)"/>
    <path id="Path_38" data-name="Path 38" class="cls-16" d="M237.475,227.893l-7.391,2.768h-9.217v2.612l4.916,1.536,8.91-1.536,5.377-5.38Z" transform="translate(-178 -117)"/>
    <path id="Path_39" data-name="Path 39" class="cls-17" d="M231.9,268.348a19.5,19.5,0,0,0,3.846,5.47,30.686,30.686,0,0,0,6.293,4.405l7.692.7a38.274,38.274,0,0,0,8.041-3.246c4.667-2.447,10.628-6.543,10.628-6.543s-9.09,1.329-10.628,1.888-9.251,1.656-9.579,1.049-6.153,0-6.153,0Z" transform="translate(-178 -117)"/>
    <path id="Path_40" data-name="Path 40" class="cls-18" d="M232.389,268.348a21.757,21.757,0,0,0,4.2,2.184,49.555,49.555,0,0,0,5.8,1.748s7.8.405,9.69-.084c.5-.13,4.056-.681,4.056-.681s12.8-2.39,12.265-2.521-.539-.385-3.873,0-9.461,1.538-9.461,1.538l-3.263.766h-1.449l-7.966.074-5.1-1.4Z" transform="translate(-178 -117)"/>
    <path id="Path_41" data-name="Path 41" class="cls-19" d="M268.71,267.5l-7.768.794s-4.919.07-8.576.489a34.735,34.735,0,0,0-6.053,1.189l-5.492-.659-8.223-1.019v.489l9.635,2.587s8.018-.07,8.862,0,16.458-2.587,16.458-2.587Z" transform="translate(-178.21 -117)"/>
    <path id="Path_43" data-name="Path 43" class="cls-19" d="M232.389,269.436a52.555,52.555,0,0,0,3.22,4.52,22.3,22.3,0,0,0,6.962,4.641,16.953,16.953,0,0,0,7.658.6,29.751,29.751,0,0,0,7.519-2.924,96.966,96.966,0,0,0,9.654-6.266l-8.122,3.945a41.5,41.5,0,0,1-9.514,3.713,35.319,35.319,0,0,1-3.62.464,9.056,9.056,0,0,1-3.574-.464,16.934,16.934,0,0,1-2.785-1.392s-1.992-1.7-3.713-3.017C233.527,271.318,232.5,269.262,232.389,269.436Z" transform="translate(-178 -117)"/>
    <path id="Path_44" data-name="Path 44" class="cls-10" d="M264.838,225.987l8,2.516h8.079l3.294-.628s-7.216,1.177-7.608,1.177-7.216-.549-7.216-.549Z" transform="translate(-178 -117)"/>
    <path id="Path_45" data-name="Path 45" class="cls-14" d="M265.954,226.947l6.628,1.56h9.687l-9.687.816Z" transform="translate(-178 -117)"/>
    <path id="Path_46" data-name="Path 46" class="cls-14" d="M237.475,225.045l-7.7.737-8.48-1.251a27.429,27.429,0,0,0,8.109,1.762A26.073,26.073,0,0,0,237.475,225.045Z" transform="translate(-178 -117)"/>
    <path id="Path_47" data-name="Path 47" class="cls-16" d="M264.318,250.532l13.9,9.891,4.69,4.792-3.875,5.914-1.733,5.1a79.3,79.3,0,0,0,2.753-8.361c.688-3.059,0-3.875,0-3.875Z" transform="translate(-178 -117)"/>
    <path id="Path_49" data-name="Path 49" class="cls-10" d="M238.867,254.5l-5.3-1.284,4.507,1.988Z" transform="translate(-178 -117)"/>
    <path id="Path_50" data-name="Path 50" class="cls-20" d="M223.384,259.886s-1.05-1.571.488-4.928,5.666-8.5,5.666-8.5a48.387,48.387,0,0,1,4.945-2.464,12.051,12.051,0,0,0-4.126,3c-2.608,2.791-4.533,4.892-6.072,7.969S223.384,259.886,223.384,259.886Z" transform="translate(-178 -113.339)"/>
    <path id="Path_51" data-name="Path 51" class="cls-3" d="M314.082,223.923l5.1-9.641,5.3-2.039,4.181,5.1s-1.122,13.969-1.122,14.479a105.061,105.061,0,0,1-5,11.012c-.51.51-5.1,5.608-5.1,5.608s-2.7,2.485-4.231,1.771a4.414,4.414,0,0,0-1.917,0l-2.413-1.771.4-4.079,1.02-6.118,2.447,3.263,4.079-3.263.921-.963,2.375,1.25,2.414.733,3.643-7.444.844-13.46-2.549-3.089-3.332,1.326-4.316,6.352Z" transform="translate(-178 -117)"/>
    <path id="Path_52" data-name="Path 52" class="cls-21" d="M317.371,224.55h-1.49l4.957-9.069,3.671-.612a5.644,5.644,0,0,1,2.745,3.869c.561,2.8-.5,6.838-.5,7.347a17.087,17.087,0,0,1-.51,6.934,20.608,20.608,0,0,1-3.773,6.322h-1.631a13.127,13.127,0,0,0,3.671-6.322c.918-3.915,0-9.34,0-9.34s.331.173,0-.857-.255-3.026-2.039-2.594c-.876.212-1.228,1.2-2.667,2.594A12.111,12.111,0,0,1,317.371,224.55Z" transform="translate(-178 -117)"/>
    <path id="Path_53" data-name="Path 53" class="cls-22" d="M311.06,230.546s2.518-1.772,4.126-1.667,1.31.763,2.3,2.089.359.984.479,2.321a22.72,22.72,0,0,1,0,3.027l-3.712.928-1.591,2.651h0s-.63,1.748,0,1.748,2.519-1.748,2.519-1.748l2.784-2.651h1.193l2.651-.928,1.326-4.639-1.326-4.639-3.844-1.988-1.988-1.326-.8,1.326-2.519-1.326-1.608,5.965Z" transform="translate(-178 -117)"/>
    <path id="Path_54" data-name="Path 54" class="cls-23" d="M310.282,238.3l2.386,3.314Z" transform="translate(-178 -117)"/>
    <path id="Path_55" data-name="Path 55" class="cls-24" d="M317.1,223s-.985,1.631,0,1.937,4.531,2.143,4.531,2.143l.838,4.281-1.138,4.969-3.451.986,3.263,2.2a12.361,12.361,0,0,0,2.705-3.586,14.264,14.264,0,0,0,1.067-4.572v-6.424l-.714-5.3h-2.345L319.41,223l-1.529.918Z" transform="translate(-178 -117)"/>
    <path id="Path_56" data-name="Path 56" class="cls-3" d="M312.478,241.735s.207-.558.566-1.57c.194-.545.557-1.6.732-2.236h0s1.02.927,1.53-.908,1.326-2.345,1.326-3.365-2.039-4.792-2.039-4.792l-3.059.918a2.461,2.461,0,0,0-.714,2.039c0,1.529.306,4.487,0,5.2s-.714,2.039,0,2.243S312.478,241.735,312.478,241.735Z" transform="translate(-178 -117)"/>
    <path id="Path_57" data-name="Path 57" class="cls-25" d="M314.388,228.864h1.793l2.489,2.753v2.549s.714,1.428,0,1.733l-.664.557-1.069.259-1.683.458,1.071-3.517s.341-1.033-.372-1.033S314.388,228.864,314.388,228.864Z" transform="translate(-178 -117)"/>
    <path id="Path_60" data-name="Path 60" class="cls-26" d="M310.423,259.221s-9.316,17.821-9.622,18.535S275,303.962,275,303.962l-9.177,8.157L264.5,323.9l-7.546,2.753-6.118-3.467-.612-8.157,3.059-9.177-1.733-3.875-10.2-1.02-5.1-2.09-5.608-7.851-1.529-4.385-4.079-7.342-12.44,8.871-1.631,7.444-5,7.851-3.569,7.953-3.569,4.792v23.809l190.457,4.48V291.012s-17.25-14.627-18.37-14.627-9.633-2.912-9.633-2.912l-6.5-1.792h-4.032l-5.6-3.808H336.87l-7.841-2.24a36.669,36.669,0,0,0-5.6-1.568,48.511,48.511,0,0,1-5.6-1.12h-3.36Z" transform="translate(-178 -117)"/>
    <path id="Path_61" data-name="Path 61" class="cls-27" d="M275.773,302.354c1.475,2.05,7.3,11.66,7.3,11.66v6.407l11.649-8.446,24.754-26.21V263.05l-9.319-3.495-9.61,18.056Z" transform="translate(-178 -117)"/>
    <path id="Path_62" data-name="Path 62" class="cls-27" d="M241.5,311.1l-7.937-7.281v10.193l-3.495-6.407L228.613,294.5,225.7,280.524s5.825,10.193,6.407,11.649,4.778,7.368,4.778,7.368Z" transform="translate(-178 -117)"/>
    <path id="Path_64" data-name="Path 64" class="cls-16" d="M252.5,223.923a16.561,16.561,0,0,1,2.452-5.5c1.992-3.013,3.188-4.868,4.825-5.342s1.551,3.446,1.551,3.446h1.379l-3.963,1.9Z" transform="translate(-178 -117)"/>
    <path id="Path_65" data-name="Path 65" class="cls-16" d="M245.5,223.923V220.7l-1.894-3.025-4.532-2.413a43.6,43.6,0,0,1,4.532,4.546A12.661,12.661,0,0,1,245.5,223.923Z" transform="translate(-180 -116)"/>
    <path id="Path_66" data-name="Path 66" class="cls-10" d="M271.26,255.2s-5.385-5.3-5.12-4.64a45.03,45.03,0,0,0,2.916,3.977Z" transform="translate(-178 -117)"/>
    <path id="Path_67" data-name="Path 67" class="cls-10" d="M-4.166,176.89-9.952,189.3s-2.929,6.893-2.929,7.755v5.17l2.929,1.034,24.987-1.034Z" transform="translate(25 22)"/>
    <path id="Path_68" data-name="Path 68" class="cls-10" d="M-25,203s.832-11.721,2.555-13.1S-3.49,176.976-3.49,176.976V203Z" transform="translate(25 22)"/>
    <path id="Path_69" data-name="Path 69" class="cls-26" d="M-20.5,201.761l1.5-1.177a16.412,16.412,0,0,1,0-4.308c.345-1.723-2.24,2.757,2.929-4.653s3.963-7.755,5.687-9.478.862-1.206,3.446-2.585,3.1-2.24,3.1-2.24L-2.628,203l-18.439,1.031L-22.973,203Z" transform="translate(25 22)"/>
  </g>
</svg>
